<svg width="1920" height="1920" fill="none" xmlns="http://www.w3.org/2000/svg"><path fill="url(#a)" d="M0 0h1920v1920H0z"/><path fill-rule="evenodd" clip-rule="evenodd" d="M463.915 804.386c100.122-421.637 429.933-532.08 891.905-453.001a372.145 372.145 0 0 1 20.62 3.645c-325.2-188.897-748.569-119.624-994.663 180.622C316.022 615.856 268.976 705.251 240 798.541c87.728-46.561 163.412-48.377 223.915 5.845Zm338.246 442.104c-115.088-63.16-269.474-305.963-122.106-576.841 150.347-276.351 491.235-317.193 602.105-307.368-94.03 0-374.39 96.131-437.894 345.263-27.19 106.667-21.053 276.491-11.228 370.526 5.572 53.33-5.614 136.14-30.877 168.42Zm327.669-581.052c418.24 312.983 95.44 937.542-486.191 901.082-28.311 1.86-55.95.81-82.905-3.17 461.966 79.08 788.286-30.03 890.966-449.37 6.62-48.12 9.16-99.93 7.63-155.413-1.53-55.491-14.73-118.292-39.6-188.379-27.85-78.515-61.81-132.89-92.64-157.726-40.02-32.24-145.3-54.721-197.26 52.976Zm-7.02 11.229c115.09 63.157 269.48 305.964 122.11 576.843-150.35 276.35-491.235 317.19-602.113 307.37 94.036 0 374.393-96.14 437.903-345.27 27.19-106.66 21.05-276.487 11.22-370.522-5.57-53.334 5.62-136.141 30.88-168.421ZM569.156 1571.77c461.964 79.08 791.784-31.36 891.904-453 60.5 54.22 136.18 52.41 223.91 5.85-28.97 93.28-76.02 182.68-141.77 262.88-246.1 300.25-669.463 369.52-994.67 180.63a375.82 375.82 0 0 0 20.626 3.64ZM1281.33 356.634c-581.625-36.458-904.433 588.103-486.187 901.086-51.961 107.7-157.245 85.21-197.265 52.97-30.83-24.83-64.79-79.21-92.638-157.72-24.866-70.09-38.07-132.89-39.599-188.379-1.528-55.487 1.009-107.292 7.626-155.411C575.95 389.836 902.27 280.725 1364.24 359.804c-26.96-3.976-54.6-5.031-82.91-3.17Z" fill="#fff"/><defs><linearGradient id="a" x1="3.582" y1="0" x2="1923.58" y2="1920" gradientUnits="userSpaceOnUse"><stop stop-color="#81DB03"/><stop offset=".7" stop-color="#15A1BF"/></linearGradient></defs></svg>